<?xml version="1.0" encoding="UTF-8"?>
<svg xmlns="http://www.w3.org/2000/svg" width="200" height="200" preserveAspectRatio="xMidYMid meet"
  version="1.0">
  <title>Graphique en courbes</title>
  <g>
    <g stroke="null" transform="rotate(-90 96.1861 107.5)"></g>
    <g>
      <line stroke-width="3" stroke="#e5e5e5" y2="147" x2="20" y1="130" x1="0"></line>
      <line stroke-width="3" stroke="#e5e5e5" y2="137" x2="40" y1="147" x1="20"></line>
      <line stroke-width="3" stroke="#e5e5e5" y2="142" x2="60" y1="137" x1="40"></line>
      <line stroke-width="3" stroke="#e5e5e5" y2="107" x2="80" y1="142" x1="60"></line>
      <line stroke-width="3" stroke="#e5e5e5" y2="122" x2="100" y1="107" x1="80"></line>
      <line stroke-width="3" stroke="#e5e5e5" y2="52" x2="120" y1="122" x1="100"></line>
      <line stroke-width="3" stroke="#e5e5e5" y2="77" x2="140" y1="52" x1="120"></line>
      <line stroke-width="3" stroke="#e5e5e5" y2="137" x2="160" y1="77" x1="140"></line>
      <line stroke-width="3" stroke="#e5e5e5" y2="117" x2="180" y1="137" x1="160"></line>
      <line stroke-width="3" stroke="#e5e5e5" y2="147" x2="200" y1="117" x1="180"></line>
    </g>
    <g>
      <line stroke-width="3" stroke="#999999" y2="165" x2="20" y1="156" x1="0"></line>
      <line stroke-width="3" stroke="#999999" y2="150" x2="40" y1="164" x1="20"></line>
      <line stroke-width="3" stroke="#999999" y2="165" x2="60" y1="150" x1="40"></line>
      <line stroke-width="3" stroke="#999999" y2="150" x2="80" y1="165" x1="60"></line>
      <line stroke-width="3" stroke="#999999" y2="170" x2="100" y1="150" x1="80"></line>
      <line stroke-width="3" stroke="#999999" y2="90" x2="120" y1="170" x1="100"></line>
      <line stroke-width="3" stroke="#999999" y2="50" x2="140" y1="90" x1="120"></line>
      <line stroke-width="3" stroke="#999999" y2="40" x2="160" y1="50" x1="140"></line>
      <line stroke-width="3" stroke="#999999" y2="55" x2="180" y1="40" x1="160"></line>
      <line stroke-width="3" stroke="#999999" y2="35" x2="200" y1="55" x1="180"></line>
    </g>
  </g>
</svg>